<svg id="Layer_1" data-name="Layer 1" xmlns="http://www.w3.org/2000/svg" viewBox="0 0 128 128">
  <title>palm tree</title>
  <path d="M71.64,86.25c13.45,1.89,24.25,10.34,27.52,21.28" style="fill: none;stroke: #faad66;stroke-miterlimit: 10;stroke-width: 2px"/>
  <path d="M32.58,107.37C35.94,96.4,46.9,88,60.49,86.18" style="fill: none;stroke: #faad66;stroke-miterlimit: 10;stroke-width: 2px"/>
  <line x1="47.3" y1="97.87" x2="50.34" y2="97.87" style="fill: none;stroke: #faad66;stroke-miterlimit: 10;stroke-width: 2px"/>
  <line x1="61.9" y1="94.58" x2="64.94" y2="94.58" style="fill: none;stroke: #faad66;stroke-miterlimit: 10;stroke-width: 2px"/>
  <line x1="76.57" y1="97.87" x2="79.6" y2="97.87" style="fill: none;stroke: #faad66;stroke-miterlimit: 10;stroke-width: 2px"/>
  <circle cx="107.13" cy="20.86" r="7.97" style="fill: none;stroke: #faad66;stroke-miterlimit: 10;stroke-width: 2px"/>
  <path d="M33.87,21.59a16.72,16.72,0,0,1,7.29,1.08s0.88-5,2.78-7.6" style="fill: none;stroke: #faad66;stroke-miterlimit: 10;stroke-width: 2px"/>
  <path d="M68.45,36.82v3l-0.59.32a5.26,5.26,0,0,0-9.22,4.94L54.56,47.3l-4.48-3.57-1.47,4.78L33.87,55.93c4.7-10.82,10.48-16.35,15.95-19A22.2,22.2,0,0,1,68.45,36.82Z" style="fill: none;stroke: #faad66;stroke-miterlimit: 10;stroke-width: 2px"/>
  <path d="M68.45,36.82A22.2,22.2,0,0,0,49.81,37L48.91,35l-3.42,3.66L29,39c25-21.49,39.46-2.15,39.46-2.15" style="fill: none;stroke: #faad66;stroke-miterlimit: 10;stroke-width: 2px"/>
  <path d="M68.45,36.82v3l13.9,7.45,4.48-3.57,1.47,4.78L103,55.93c-4.7-10.82-10.48-16.35-15.95-19A22.2,22.2,0,0,0,68.45,36.82Z" style="fill: none;stroke: #faad66;stroke-miterlimit: 10;stroke-width: 2px"/>
  <path d="M68.45,36.82A22.2,22.2,0,0,1,87.09,37L88,35l3.42,3.66L107.91,39c-25-21.49-39.46-2.15-39.46-2.15" style="fill: none;stroke: #faad66;stroke-miterlimit: 10;stroke-width: 2px"/>
  <path d="M68.75,43.11a5.25,5.25,0,0,0-.89-2.94l0.59-.32,2.6,1.39c-0.13.64-.25,1.27-0.37,1.89l-0.5,0a4.81,4.81,0,0,0-1.44.21A1.13,1.13,0,0,0,68.75,43.11Z" style="fill: none;stroke: #faad66;stroke-miterlimit: 10;stroke-width: 2px"/>
  <path d="M72.12,87.14H60.64c-0.05-.32-0.11-0.64-0.14-1-2.89-18.76-.51-31,1.94-37.92a5.62,5.62,0,0,0,1.06.11,4.81,4.81,0,0,0,1.44-.21,1.13,1.13,0,0,0,0,.21,5.27,5.27,0,0,0,4.12,5.14c-2.35,20,1.26,29.89,2.59,32.75A9.4,9.4,0,0,0,72.12,87.14Z" style="fill: none;stroke: #faad66;stroke-miterlimit: 10;stroke-width: 2px"/>
  <line x1="59.45" y1="62.84" x2="63.42" y2="62.84" style="fill: none;stroke: #faad66;stroke-miterlimit: 10;stroke-width: 2px"/>
  <line x1="59.45" y1="73.68" x2="63.42" y2="73.68" style="fill: none;stroke: #faad66;stroke-miterlimit: 10;stroke-width: 2px"/>
  <path d="M68.75,43.11a1.13,1.13,0,0,1,0,.21,5.21,5.21,0,0,0-3.8,4.83,4.81,4.81,0,0,1-1.44.21,5.62,5.62,0,0,1-1.06-.11A5.26,5.26,0,1,1,68.75,43.11Z" style="fill: none;stroke: #faad66;stroke-miterlimit: 10;stroke-width: 2px"/>
  <path d="M75.44,48.37a5.25,5.25,0,1,1-10.51,0,1.13,1.13,0,0,1,0-.21,5.21,5.21,0,0,1,3.8-4.83,4.81,4.81,0,0,1,1.44-.21l0.5,0A5.25,5.25,0,0,1,75.44,48.37Z" style="fill: none;stroke: #faad66;stroke-miterlimit: 10;stroke-width: 2px"/>
</svg>
